<?xml version="1.0" encoding="utf-8"?>
<!-- Generator: Adobe Illustrator 23.0.2, SVG Export Plug-In . SVG Version: 6.00 Build 0)  -->
<svg version="1.1" id="Layer_1" xmlns="http://www.w3.org/2000/svg" xmlns:xlink="http://www.w3.org/1999/xlink" x="0px" y="0px"
	 viewBox="0 0 595.28 595.28" style="enable-background:new 0 0 595.28 595.28;" xml:space="preserve">
<style type="text/css">
	.st0{fill:#F7B0B9;}
	.st1{fill:#BEAFD6;}
	.st2{fill:#A1D6BC;}
	.st3{fill:#F4899E;}
	.st4{fill:#9CCEEF;}
</style>
<path class="st2" d="M389.36,475.75c-6.12,2.14-13.85,4.52-23.01,6.68c7.07-6.82,11.95-16.72,10.98-27.87
	c-13.3,0.52-20.72,13.16-21.05,30.02c-18.87,3.62-42.45,5.92-69.52,3.95c10.72-4.35,20.16-14.14,24.55-29.48
	c-23.21-3.3-39.54,10.33-48.51,26.68c-3.43-0.55-6.91-1.17-10.42-1.87c-1.62-0.32-3.2,0.73-3.53,2.36c-0.32,1.63,0.73,3.2,2.36,3.53
	c19.86,3.94,38.42,5.49,55.33,5.49c2.58,0,5.11-0.04,7.61-0.11c1.93,17.24,11.92,35.06,43.67,39.64
	c1.03-11.02-9.22-32.47-28.36-40.49c15.19-1.27,28.57-3.68,39.79-6.39c-1.7,15.11,17,33.94,36.35,36.72
	c-1.38-19.22-12.8-35.79-30.34-38.25c6.37-1.71,11.89-3.47,16.51-5.1c14.65,3.65,29.28-5.04,36.9-18.18
	C409.33,454.5,393.76,460.75,389.36,475.75z M482.67,221.62c1.9-11.65-5.49-22.77-16.08-28.4c-6.27,15.64-1.04,27.93,10.79,31.33
	c1.89,4.76,4.01,10.77,6.02,17.95c-5.7-5.13-13.56-8.43-22.19-7.35c0.82,10.64,11.02,16.27,24.45,16.2
	c3.46,14.95,6.02,33.64,5.37,55.24c-4.06-8.1-12.11-14.98-24.16-17.94c-1.95,18.7,9.28,31.46,22.6,38.32
	c-0.35,2.87-0.74,5.77-1.21,8.72c-0.26,1.64,0.85,3.17,2.49,3.44c0.16,0.03,0.32,0.04,0.48,0.04c1.45,0,2.72-1.05,2.96-2.53
	c3.62-22.61,3.54-43.05,1.67-60.61c14.25-2.83,28.67-12.34,29.35-39.38c-9.49,0.23-27.16,11.72-30.63,29.5
	c-1.45-9.53-3.38-18.05-5.44-25.4c12.2,0.39,26.49-15.12,28.14-30.67c-15.08,1.65-27.87,10.88-29.99,24.49
	C485.7,229.55,484.11,225.22,482.67,221.62z M445.98,452.13c-15.19,20.86-5.15,38.11,5.15,49.18
	C463.49,480.46,458.25,461.66,445.98,452.13z M494.14,353.45c21.15,6.24,35.29-2.58,55.03-26.61
	C515.84,317.26,500.48,332.54,494.14,353.45z M566.31,404.15c-15.44-44.63-44.5-49.77-72.76-40.46
	C503.16,392.15,524.07,401,566.31,404.15z M473.5,465.42c11.33-7.42,16.99-18.49,10.81-30.59
	C473.76,437.91,467.84,450.18,473.5,465.42z M486.86,432.25c4.93,6.44,9.05,19.05,37.11,12.1
	C521.14,431.48,504.85,421.69,486.86,432.25z M77.03,357.49c2.14-18.42,1.6-29.91-24.03-40.72C51.93,338,57.27,352.42,77.03,357.49z
	 M28.97,366.3c16.02,12.28,33.07,17.09,48.84,0C63.68,355.08,46.06,352.95,28.97,366.3z M119.98,409.55
	c-20.87-4.81-40.09,13.87-36.35,36.84C112.46,449.06,121.63,426.63,119.98,409.55z M93.49,244.09c1.72-1.99,3.58-4.24,5.35-6.58
	c-1.29,8.63-1.98,17.57-1.97,26.71c-8.63,6.98-10.1,20.36,2.72,33.62c11.13-15.7,12.27-25.23,3.25-34.58c0-2.48,0.06-4.92,0.17-7.34
	c1.8,2.12,4.05,4.18,6.3,6.02c1.1,6.5,5.45,13.49,21.28,12.57c-2.57-12.46-6.2-16.39-18.81-15.69c-5.23-4.3-7.86-7.85-8.33-9.82
	c1.38-16.14,4.94-30.8,9.52-43.55c0.69,2.49,1.64,5.3,2.84,8.45c0.51,1.32,1.02,2.61,1.53,3.83c-4.24,8.96-3.47,18.39,14.52,23.57
	c5.15-11.01-2.18-22.32-10.65-24.65c-2.71-6.49-5.15-13.58-5.58-18.11c3.33-8.13,7.02-15.33,10.71-21.5
	c1.51,4.14,4.75,9.22,8.02,13.74c-2.94,9.64,2.17,19.61,23.57,21.78c-1.45-14.36-3.58-23.92-20.28-24.12
	c-4.78-6.62-8.66-13.2-8.18-15.83c0.04-0.2,0.03-0.39,0.01-0.58c3.06-4.63,6.05-8.53,8.75-11.57c1.1-1.24,0.99-3.13-0.25-4.24
	c-1.24-1.1-3.13-0.99-4.24,0.25c-5.65,6.35-11.14,14.31-16.1,23.52c-3.44,2.91-7.77,5.36-11.38,7.14
	c-7.29-6.5-13.14-6.32-25.53,7.78c16.96,11.04,23.9,5.45,27.51-4.29c1.76-0.87,3.67-1.89,5.58-3.05
	c-5.63,11.94-10.3,25.59-13.31,40.34c-2.62,4.52-6.69,9.62-10.17,13.64c-6.66-1.88-15.19,1.82-19.26,17.91
	C87.26,263.28,93.01,253.08,93.49,244.09z M246.14,116.76c-3.6-4.27-7.74-8.64-11.4-11.11c6.88-2.1,14.76-3.94,23.45-5.21
	c4.29,1.51,10.58,5.59,16.22,9.79c0.21,8.78,9.42,18.63,21.35,16.29c-0.69-18.71-9.65-21.73-19.37-19.78
	c-1.06-0.79-2.18-1.6-3.34-2.41c-2.77-1.93-5.27-3.53-7.52-4.8c13.47-1.37,28.56-1.28,44.56,1.27c1.8,0.93,4.62,4.35,7.52,10.46
	c-3.72,12.07-0.78,16.54,10.69,22.04c4.71-15.14-1.02-21.05-7.06-23.68c-1.24-2.63-2.7-5.32-4.32-7.57
	c2.37,0.48,4.76,1.01,7.16,1.61c6.89,11.01,16.42,12.2,34.34,5.19c-9.77-15.64-23.11-17.45-31.97-10.75
	c-8.87-2.22-17.72-3.71-26.4-4.54c2.7-1.16,5.33-2.42,7.68-3.61c8.84,1.71,20.13-1.41,20.33-18c-16.59,0.06-22.25,7.45-22.03,14.37
	c-4.74,2.4-10.67,5.12-15.69,6.57c-15.05-0.64-29.42,0.59-42.36,3.17c1.59-1.58,3.04-3.19,4.3-4.68
	c10.33-1.16,17.42-6.54,10.8-25.66c-16.68,8.62-18.27,14.25-13.72,22.9c-2.6,3.08-6.02,6.69-9.68,9.32
	c-10.13,2.59-19.18,6-26.71,9.95c-1.47,0.77-2.03,2.58-1.26,4.05c0.54,1.02,1.58,1.61,2.66,1.61c0.47,0,0.95-0.11,1.39-0.34
	c3.61-1.89,8.11-3.85,13.35-5.7c0.18,0.07,0.37,0.12,0.57,0.13c2.68,0.16,8.12,5.52,13.39,11.76c-3.84,16.26,4.92,20.63,18.5,25.51
	C264.65,123.6,256.21,116.23,246.14,116.76z"/>
<path class="st3" d="M123.8,355.96c8.44-2.57,7.89-9.18,6.29-11.15C140.42,345.6,136.46,360.55,123.8,355.96z M128.75,369
	c14.5,0,19.46-17.62,17.81-26.07c-1.84,8.81-6.43,17.62-18.17,17.62c-11.74,0-11.2-16.15-11.2-16.15
	C114.8,351.92,114.25,369,128.75,369z M131.23,339.81c-8.36-4.77-13.71,8.97-2.29,11.01C125.63,345.5,127.1,340.73,131.23,339.81z
	 M139.58,334.49c-5.87-6.61-18.87-2.94-20.19,5.32c6.79-9.12,22.76-4.41,19.09,14.01C143.07,351.12,145.46,341.09,139.58,334.49z
	 M132.22,297.85c-22.48,0-46.28,19.44-47.92,49.17c8.13-16.33,21.85-35.72,51.92-35.72c30.07,0,38.83,21.79,42.47,29.69
	C181.12,330.68,169.28,297.85,132.22,297.85z M159.59,361.65c7.16-20.38-16.53-27.72-16.53-27.72c6.43,4.77,10.29,12.48,6.43,24.23
	c-3.85,11.75-15.84,14.5-29.03,10.83C130.77,373.4,152.43,382.03,159.59,361.65z M173.91,373.77c10.1-16.89,0.37-45.89-18.17-53.42
	c8.81,9.73,13.58,31.94,4.59,48.09c-8.99,16.15-33.96,16.52-36.53,16.34C133.16,388.27,163.82,390.66,173.91,373.77z M96.38,392.01
	c20.35,22.78,57.41,0.3,58.62-4.25c-39.79,14.29-70.92-17.01-55.89-57.07C90.15,340.76,76.02,369.23,96.38,392.01z M130.7,315.37
	c-18.53,0-30.07,12.55-31.59,31.38c2.73-3.65,6.68-4.56,6.68-4.56c-7.29,14.88-2.42,39.49,18.99,39.49c6.52,0,14.12-3.34,16.55-5.16
	c-9.11,0.61-30.94-0.05-29.46-26.12c1.11-19.68,24.91-39.79,49.21-7.9C161.07,330.65,152.27,315.37,130.7,315.37z M490.47,419.69
	c10.1-16.89,0.37-45.89-18.17-53.42c8.81,9.73,13.58,31.94,4.59,48.09c-8.99,16.15-33.96,16.52-36.53,16.34
	C449.71,434.19,480.37,436.58,490.47,419.69z M448.77,343.77c-22.48,0-46.28,19.44-47.92,49.17c8.13-16.33,21.85-35.72,51.92-35.72
	S491.6,379,495.25,386.9C497.68,376.61,485.83,343.77,448.77,343.77z M445.31,414.92c14.5,0,19.46-17.62,17.81-26.07
	c-1.84,8.81-6.43,17.62-18.17,17.62c-11.74,0-11.2-16.15-11.2-16.15C431.36,397.84,430.81,414.92,445.31,414.92z M441.34,427.6
	c6.52,0,14.12-3.34,16.55-5.16c-9.11,0.61-30.94-0.05-29.46-26.12c1.11-19.68,24.91-39.79,49.21-7.9c0-11.85-8.81-27.13-30.38-27.13
	c-18.53,0-30.07,12.55-31.59,31.38c2.73-3.65,6.68-4.56,6.68-4.56C415.06,403,419.93,427.6,441.34,427.6z M456.14,380.41
	c-5.87-6.61-18.87-2.94-20.19,5.32c6.79-9.12,22.76-4.41,19.09,14.01C459.63,397.04,462.01,387.01,456.14,380.41z M415.66,376.61
	c-8.96,10.08-23.09,38.54-2.73,61.33s57.41,0.3,58.62-4.25C431.76,447.97,400.64,416.67,415.66,376.61z M476.15,407.57
	c7.16-20.38-16.53-27.72-16.53-27.72c6.43,4.77,10.29,12.48,6.43,24.23c-3.85,11.75-15.84,14.5-29.03,10.83
	C447.33,419.32,468.99,427.95,476.15,407.57z M446.65,390.74c1.6,1.97,2.15,8.58-6.29,11.15
	C453.02,406.47,456.98,391.52,446.65,390.74z M447.78,385.73c-8.36-4.77-13.71,8.97-2.29,11.01
	C442.19,391.42,443.66,386.65,447.78,385.73z M181.07,395.87c-28.66,0-59.01,24.78-61.09,62.68c10.36-20.82,27.85-45.54,66.19-45.54
	c38.34,0,49.5,27.78,54.15,37.84C243.41,437.73,228.31,395.87,181.07,395.87z M179.81,449.36c-10.65-6.08-17.48,11.44-2.92,14.04
	C172.67,456.62,174.55,450.53,179.81,449.36z M190.46,442.58c-7.49-8.42-24.06-3.75-25.74,6.79c8.66-11.63,29.02-5.62,24.34,17.86
	C194.91,463.79,197.95,451,190.46,442.58z M178.36,455.75c2.04,2.51,2.74,10.93-8.02,14.21
	C186.48,475.81,191.53,456.75,178.36,455.75z M215.97,477.21c9.13-25.98-21.07-35.34-21.07-35.34c8.2,6.08,13.12,15.91,8.2,30.89
	s-20.19,18.49-37.01,13.81C179.23,492.19,206.84,503.19,215.97,477.21z M176.65,486.57c18.49,0,24.81-22.47,22.7-33.23
	c-2.34,11.23-8.2,22.47-23.17,22.47c-14.97,0-14.28-20.59-14.28-20.59C158.87,464.81,158.16,486.57,176.65,486.57z M179.13,418.21
	c-23.62,0-38.34,16-40.27,40.01c3.49-4.65,8.52-5.81,8.52-5.81c-9.29,18.97-3.08,50.34,24.21,50.34c8.32,0,18-4.26,21.1-6.58
	c-11.62,0.77-39.44-0.07-37.56-33.3c1.42-25.09,31.75-50.73,62.73-10.07C217.86,437.69,206.63,418.21,179.13,418.21z M211.05,424.56
	c11.23,12.4,17.32,40.72,5.85,61.31c-11.47,20.59-43.29,21.06-46.57,20.83c11.94,4.45,51.02,7.49,63.89-14.04
	C247.09,471.13,234.69,434.15,211.05,424.56z M138.86,437.73c-11.42,12.85-29.43,49.14-3.49,78.18
	c25.95,29.04,73.19,0.39,74.74-5.42C159.38,528.71,119.7,488.81,138.86,437.73z M461.37,103.63c-17.09-21.58-41.13-1.04-41.13-1.04
	c9.52-3.69,20.46-2.6,30.5,9.55c10.04,12.15,4.85,26.95-8.08,38.67C454.42,142.7,478.46,125.22,461.37,103.63z M438.56,121.06
	c0.22-6.78-8.97-16.18-20.09-14.34c-11.12,1.84-16.01,18.34-8,25.39C405.25,118.58,421.2,104.57,438.56,121.06z M448.3,141.88
	c9.87-15.63-5.76-32.97-15.98-36.93c8.25,7.98,14.62,18.93,6.63,31.58s-25.03,1.08-25.03,1.08
	C420.4,145.3,438.43,157.51,448.3,141.88z M423.14,123.98c3.21-0.38,10.71,3.52,7.73,14.37
	C444.44,127.82,431.02,113.37,423.14,123.98z M428.83,129.31c-7.99-0.06-12.13-4.89-10.32-9.96
	C407.68,125.11,418.86,140.24,428.83,129.31z M394.35,174.84c-12.08-19.87-23.64-47.86-3.18-80.28
	c20.46-32.42,49.91-27.03,60.91-25.59c-9.45-9.63-52.91-19.2-78.13,20.75C358.66,113.96,363.41,152.85,394.35,174.84z
	 M391.81,103.29c-12.61,19.97-6.94,40.96,12.33,55.41c-2.07-5.43-0.36-10.3-0.36-10.3c11.08,17.99,40.92,29.48,55.49,6.4
	c4.44-7.03,6.01-17.49,5.69-21.35c-5.55,10.24-21.11,33.31-48.21,13.99c-20.46-14.59-25.95-53.93,24.97-58.42
	C428.96,80.94,406.49,80.04,391.81,103.29z M386.82,147.76c4.77,16.52,25.84,51.12,64.25,44.68c38.41-6.44,39.39-61.68,35.31-66.09
	C474.71,178.97,419.79,191.23,386.82,147.76z M414.22,79.68c16.48-2.88,43.68,7.09,54.97,27.78c11.29,20.69-5.3,47.85-7.25,50.5
	c10.13-7.72,33.56-39.14,22.23-61.52C472.84,74.07,434.95,64.82,414.22,79.68z M138.62,146.58c7.71,11.23,17.77,4.68,23.32-0.54
	c-5.36,6.44-12.52,17.82,0.91,20.61c19.01,3.95,23.63-8.49,15.22-21c0,0,12.98,15.78,22.55,4.96c9.57-10.83,4.27-17.05-10.58-15.59
	c0,0,19.07-2.81,14.53-15.5c-4.54-12.69-8.31-10.82-20.94-0.96c7.83-10.24,12.6-21.45-1.21-24.01
	c-13.81-2.56-10.13,11.75-11.54,20.07c0.74-6.48-11.49-25.06-20.39-16.6c-6.4,6.09-3.98,14.38,1.79,20.22
	c-5.51-3.46-12.98-6.4-15.13,1.42c-2.73,9.93,9.32,10.89,14.84,10.92C144.5,131.26,130.11,134.18,138.62,146.58z"/>
</svg>
